# xmcd
#
# Track frame offsets:
#	150
#	9464
#	22211
#	32882
#	43512
#	56089
#	66893
#	76872
#	87348
#	97039
#	109444
#	120457
#	131130
#	142283
#	153336
#	163395
#	175615
#	187624
#	198143
#	209026
#	219041
#	230645
#	242052
#	252875
#	263503
#	274359
#	283389
#
# Disc length: 3945 seconds
#
# Revision: 0
# Processed by: cddbd v1.5.2PL0 Copyright (c) Steve Scherf et al.
# Submitted via: audiograbber 1.83.01
#
DISCID=920f671b
DTITLE=Mitchell Torok - "When Mexico Gave Up The Rhumba" The Best Off CD2
DYEAR=2008
DGENRE=Country
TTITLE0=Red Light, Green Light
TTITLE1=No Money Down
TTITLE2=When Mexico Gave Up The Rhumba (To Do The Rock and Roll)
TTITLE3=I Wish I Was A Little Bit Younger
TTITLE4=Drink Up And Go Home
TTITLE5=Take This Heart
TTITLE6=Pledge Of Love
TTITLE7=What's Behind The Strange Door?
TTITLE8=Two Words (True Love)
TTITLE9=You're Tempting Me
TTITLE10=Sweet Revenge
TTITLE11=Love Me Like You Mean It
TTITLE12=Caribbean, alternate take
TTITLE13=Memories Of You Haunting Me Night And Day
TTITLE14=Go Ahead And Be A Fool
TTITLE15=Little Ho-Wee - re-recording
TTITLE16=My Silly Old Heart
TTITLE17=Sit Down You're Rocking The Boat
TTITLE18=My Kind Of Woman
TTITLE19=It'll Be All Right
TTITLE20=A Woman By Your Side
TTITLE21=Another Love From Now
TTITLE22=You Never Belonged To Me
TTITLE23=You Win Again
TTITLE24=I Can't Help It (If I'm Still In Love With You)
TTITLE25=Love Your Touch (Love You So Much)
TTITLE26=You Can't Keep A Good Man Down
EXTD=
EXTT0=
EXTT1=
EXTT2=
EXTT3=
EXTT4=
EXTT5=
EXTT6=
EXTT7=
EXTT8=
EXTT9=
EXTT10=
EXTT11=
EXTT12=
EXTT13=
EXTT14=
EXTT15=
EXTT16=
EXTT17=
EXTT18=
EXTT19=
EXTT20=
EXTT21=
EXTT22=
EXTT23=
EXTT24=
EXTT25=
EXTT26=
PLAYORDER=
